<?xml version="1.0" standalone="no"?><!DOCTYPE svg PUBLIC "-//W3C//DTD SVG 1.1//EN" "http://www.w3.org/Graphics/SVG/1.1/DTD/svg11.dtd"><svg t="1567676723022" class="icon" viewBox="0 0 1024 1024" version="1.1" xmlns="http://www.w3.org/2000/svg" p-id="7799" xmlns:xlink="http://www.w3.org/1999/xlink" width="200" height="200"><defs><style type="text/css"></style></defs><path d="M862.9 267.1H94.5V56H42.8v19.3h32.4v453.2c0 75.9 29.6 147.3 83.2 200.9 53.7 53.7 125 83.2 200.9 83.2h471.4c80.4 0 145.8-65.4 145.8-145.8V380.9c0.1-62.7-50.9-113.8-113.6-113.8z m94.5 399.7c0 69.8-56.8 126.6-126.6 126.6H359.4c-146.1 0-264.9-118.8-264.9-264.9V286.4h768.4c52.1 0 94.5 42.4 94.5 94.5v285.9zM746.3 822.3c-40.9 0-74.1 33.3-74.1 74.1s33.3 74.1 74.1 74.1 74.1-33.3 74.1-74.1-33.3-74.1-74.1-74.1z m0 129c-30.3 0-54.9-24.6-54.9-54.9s24.6-54.9 54.9-54.9 54.9 24.6 54.9 54.9-24.7 54.9-54.9 54.9zM322.7 822.3c-40.9 0-74.1 33.3-74.1 74.1s33.3 74.1 74.1 74.1c40.9 0 74.1-33.3 74.1-74.1s-33.3-74.1-74.1-74.1z m0 129c-30.3 0-54.9-24.6-54.9-54.9s24.6-54.9 54.9-54.9c30.3 0 54.9 24.6 54.9 54.9s-24.7 54.9-54.9 54.9z" fill="" p-id="7800"></path><path d="M825.4 339.3h19.3v272h-19.3zM836.7 626.9c-6.3 0-11.3 5.1-11.3 11.3 0 6.3 5.1 11.3 11.3 11.3s11.3-5.1 11.3-11.3c0-6.2-5.1-11.3-11.3-11.3z" fill="" p-id="7801"></path></svg>